# xmcd
# Copyright (C) 1995-1998 Ti Kan
#
# Track frame offsets:
#       150
#       16248
#       35914
#
# Disc length: 720 seconds
#
# Revision: 0
# Processed by: cddbd v1.4PL0 Copyright (c) Steve Scherf et al.
# Submitted via: CD-Transfer v1.0
#
DISCID=1e02ce03
DTITLE=Ste - Schmuusä
DYEAR=2003
DGENRE=
TTITLE0=Schmuusä
TTITLE1=Es Tuät No Weh
TTITLE2=Rhy
EXTD=
EXTT0=
EXTT1=
EXTT2=
PLAYORDER=
